<svg xmlns="http://www.w3.org/2000/svg" viewBox="0 0 289.826 274.549">
  <defs>
    <style>
      .cls-1 {
        fill: #2b2e2e;
      }
    </style>
  </defs>
  <g id="logo_yellow" transform="translate(-0.001 0.02)">
    <g id="Layer_1" data-name="Layer 1" transform="translate(0.002 -0.02)">
      <path id="Path_1" data-name="Path 1" class="cls-1" d="M74.376,34A1135.55,1135.55,0,0,1,139.3,266.419l15.315-11.757c-43.443-32.853-71.238-87.47-56.4-142.17,5.059-18.678,30.241-62.7,54.172-38.662a29.351,29.351,0,0,1,.862,39.774c-7.949,8.338-20.485,11.451-31.63,12.285l2.779,20.457c21.68-7.644,56.534-11.118,74.545,7.2,16.871,17.094-3.085,48.53-16.677,61.371-35.827,34.16-97.587,35.494-136.917,6.532C-1.087,187.232,25.513,124.555,60.618,93.592A299.655,299.655,0,0,1,192.225,26.885a262.8,262.8,0,0,1,42.137-5.7c4.392-.25,12.7-1.807,16.677,1.056,7.032,5.225.25,15.565-3.03,21.18-16.232,27.6-33.993,54.394-50.864,81.522a10.534,10.534,0,0,0,6.254,15.315c18.372,5.392,37.884,9.506,55.756,16.371,3,1.167,9.728,3.641,10.34,7.532s-7.282,9.589-9.45,11.507A272.618,272.618,0,0,1,237.809,193.4a257.907,257.907,0,0,1-92.556,42c-13.064,3-7.532,23.1,5.559,20.1a281.644,281.644,0,0,0,125.8-66.707c14.231-12.952,19.651-31.186,2.585-44.749-8.561-6.81-19.456-8.95-29.713-11.98l-40.552-11.9,6.226,15.315,30.991-49.836c9.089-14.592,21.819-29.907,26.961-46.417,3.7-11.924,1.64-25.793-9.117-33.354S239.782-.187,227.608.813C161.484,6.15,97.7,34.222,47.526,77.415,23.484,98.122,5.306,125.111.97,156.908c-4.253,31.1,5.42,60.759,30.574,80.16,48.335,37.106,125.382,34.076,168.3-10.117,19.734-20.207,37.3-58.619,17.344-84.135-21.68-27.795-68.4-27.1-98.338-16.677-10.367,3.669-9.673,21.4,2.779,20.485C155.314,144.262,189,121.5,180.218,83.419c-4.086-17.761-17.288-33.187-35.688-35.827S108.4,55.235,96.778,69.3C73.236,97.956,68.984,140.787,77.1,175.92c9.283,39.719,34.91,72.516,66.985,96.726,8.116,6.115,16.677-3.947,15.315-11.757A1135.563,1135.563,0,0,0,94.5,28.469c-4.92-12.313-25.015-6.949-20.1,5.559Z" transform="translate(-0.002 0.02)"/>
    </g>
  </g>
</svg>
