<svg xmlns="http://www.w3.org/2000/svg" viewBox="0 0 104.28 98.76"><defs><style>.cls-1{fill:#47c4d5;}</style></defs><title>Asset 16@4x</title><g id="Layer_2" data-name="Layer 2"><g id="Layer_1-2" data-name="Layer 1"><path class="cls-1" d="M26.76,12.22A408.55,408.55,0,0,1,50.12,95.84l5.51-4.23C40,79.79,30,60.14,35.34,40.46c1.82-6.72,10.88-22.56,19.49-13.91a10.56,10.56,0,0,1,.31,14.31c-2.86,3-7.37,4.12-11.38,4.42l1,7.36c7.8-2.75,20.34-4,26.82,2.59,6.07,6.15-1.11,17.46-6,22.08C52.69,89.6,30.47,90.08,16.32,79.66c-16.71-12.31-7.14-34.86,5.49-46a107.81,107.81,0,0,1,47.35-24A94.55,94.55,0,0,1,84.32,7.61c1.58-.09,4.57-.65,6,.38,2.53,1.88.09,5.6-1.09,7.62C83.39,25.54,77,35.18,70.93,44.94a3.79,3.79,0,0,0,2.25,5.51c6.61,1.94,13.63,3.42,20.06,5.89,1.08.42,3.5,1.31,3.72,2.71s-2.62,3.45-3.4,4.14a98.08,98.08,0,0,1-8,6.38,92.79,92.79,0,0,1-33.3,15.11c-4.7,1.08-2.71,8.31,2,7.23a101.33,101.33,0,0,0,45.26-24c5.12-4.66,7.07-11.22.93-16.1-3.08-2.45-7-3.22-10.69-4.31L75.17,43.22l2.24,5.51L88.56,30.8c3.27-5.25,7.85-10.76,9.7-16.7,1.33-4.29.59-9.28-3.28-12S86.27-.08,81.89.28C58.1,2.2,35.15,12.3,17.1,27.84,8.45,35.29,1.91,45,.35,56.44c-1.53,11.19,1.95,21.86,11,28.84C28.74,98.63,56.46,97.54,71.9,81.64,79,74.37,85.32,60.55,78.14,51.37c-7.8-10-24.61-9.75-35.38-6-3.73,1.32-3.48,7.7,1,7.37C55.88,51.89,68,43.7,64.84,30,63.37,23.61,58.62,18.06,52,17.11s-13,2.75-17.18,7.81c-8.47,10.31-10,25.72-7.08,38.36,3.34,14.29,12.56,26.09,24.1,34.8,2.92,2.2,6-1.42,5.51-4.23A408.55,408.55,0,0,0,34,10.23c-1.77-4.43-9-2.5-7.23,2Z"/></g></g></svg>